<?xml version="1.0" standalone="no"?>
<!DOCTYPE svg PUBLIC "-//W3C//DTD SVG 20010904//EN"
 "http://www.w3.org/TR/2001/REC-SVG-20010904/DTD/svg10.dtd">
<svg version="1.0" xmlns="http://www.w3.org/2000/svg"
 width="832.000000pt" height="832.000000pt" viewBox="0 0 832.000000 832.000000"
 preserveAspectRatio="xMidYMid meet">

<g transform="translate(0.000000,832.000000) scale(0.100000,-0.100000)"
fill="#000000" stroke="none">
<path d="M5003 6229 c-394 -57 -670 -413 -650 -839 16 -329 185 -618 435 -743
123 -62 217 -82 346 -74 172 10 291 55 405 150 263 222 330 632 172 1043 -68
176 -210 339 -362 413 -117 57 -207 70 -346 50z m301 -123 c353 -170 518 -759
319 -1139 -119 -226 -386 -347 -645 -293 -263 56 -480 313 -529 626 -15 100
-6 266 20 355 58 195 186 346 366 431 98 46 190 65 302 60 81 -4 102 -9 167
-40z"/>
<path d="M6390 6226 c-162 -49 -238 -123 -259 -254 -18 -111 -70 -873 -74
-1082 -2 -109 0 -118 25 -161 60 -102 161 -159 297 -167 151 -8 447 48 613
117 137 58 182 138 182 326 1 142 -33 223 -107 261 -37 20 -147 15 -282 -12
-47 -9 -88 -14 -92 -11 -4 5 -5 528 0 833 1 62 -26 105 -85 135 -51 26 -157
33 -218 15z m164 -86 c51 -19 54 -38 46 -245 -9 -207 -1 -737 10 -756 6 -8 32
-6 101 10 150 34 297 53 318 42 37 -20 56 -80 56 -181 0 -110 -20 -175 -65
-214 -66 -55 -442 -146 -607 -146 -76 0 -158 28 -207 72 -66 58 -70 78 -57
296 61 1004 60 989 129 1055 63 60 204 95 276 67z"/>
<path d="M1785 6220 c-202 -32 -339 -116 -384 -234 -26 -69 -41 -221 -77 -761
-31 -464 -31 -472 36 -548 72 -81 192 -127 335 -127 99 0 161 19 204 64 29 30
34 44 42 108 4 40 5 124 2 185 -5 92 -3 113 8 116 8 2 46 11 84 21 235 55 418
229 470 447 46 197 -14 431 -149 576 -59 64 -136 110 -226 138 -66 20 -260 28
-345 15z m358 -109 c165 -64 273 -233 284 -442 6 -111 -6 -175 -49 -264 -74
-152 -262 -271 -461 -291 l-67 -7 3 -191 c1 -105 -1 -203 -5 -217 -11 -40 -57
-54 -168 -53 -112 1 -187 25 -239 76 -42 41 -51 65 -51 138 0 58 45 742 55
850 16 158 29 238 41 261 35 69 159 136 294 159 30 5 111 7 180 6 99 -3 137
-8 183 -25z"/>
<path d="M3364 6219 c-152 -19 -303 -96 -420 -213 -95 -96 -151 -186 -195
-316 -28 -84 -33 -111 -37 -230 -5 -161 16 -283 71 -410 55 -127 95 -188 187
-281 70 -71 101 -94 177 -132 125 -62 218 -82 347 -74 183 12 308 62 426 173
157 148 230 335 230 589 0 380 -175 713 -444 846 -110 53 -203 67 -342 48z
m221 -94 c219 -57 398 -288 460 -594 13 -65 16 -119 13 -235 -4 -133 -8 -161
-33 -235 -61 -178 -189 -316 -348 -371 -169 -60 -348 -49 -497 31 -164 87
-303 277 -356 487 -30 117 -33 298 -8 401 23 93 83 216 141 286 151 185 420
284 628 230z"/>
<path d="M840 4178 c-77 -11 -202 -51 -250 -81 -59 -37 -110 -89 -135 -137
-35 -69 -51 -222 -96 -901 -26 -392 -25 -398 52 -483 82 -90 207 -132 370
-124 104 5 173 34 204 88 18 31 20 56 23 218 l4 182 26 6 c192 42 287 89 392
192 131 130 187 281 177 473 -12 223 -134 428 -311 521 -93 48 -297 69 -456
46z m303 -93 c95 -20 153 -51 217 -115 120 -121 178 -305 151 -481 -37 -240
-229 -410 -511 -451 l-79 -12 -3 -212 c-3 -245 -3 -245 -95 -265 -68 -16 -186
-1 -263 32 -60 26 -116 85 -125 131 -3 18 1 137 10 263 8 127 20 293 25 370
27 381 44 534 65 576 20 38 81 88 142 116 122 56 329 77 466 48z"/>
<path d="M4016 4179 c-203 -22 -352 -105 -417 -232 -26 -50 -44 -188 -68 -529
-39 -533 -45 -682 -31 -733 17 -60 86 -137 153 -170 122 -59 317 -71 412 -25
46 22 85 69 85 102 0 37 25 28 84 -30 118 -116 179 -137 269 -91 104 53 221
230 234 352 5 50 2 64 -25 119 -18 35 -56 93 -86 130 -54 66 -54 66 -34 84 44
41 118 167 143 246 98 311 -48 656 -312 738 -121 37 -283 53 -407 39z m229
-94 c225 -23 349 -123 411 -330 25 -84 22 -228 -5 -317 -27 -84 -106 -204
-166 -250 l-45 -36 67 -78 c84 -100 143 -190 143 -221 0 -37 -35 -127 -68
-175 -64 -93 -134 -145 -181 -133 -15 4 -87 69 -178 161 l-151 154 -4 -125
c-4 -170 -4 -170 -171 -170 -113 0 -127 2 -184 29 -70 32 -95 55 -118 110 -14
33 -15 59 -5 219 32 541 62 893 80 956 31 108 170 190 356 210 77 8 97 8 219
-4z"/>
<path d="M7098 4176 c-102 -36 -234 -158 -288 -266 -24 -48 -34 -83 -38 -132
-9 -123 -12 -116 246 -478 l125 -174 4 -151 c2 -82 4 -205 6 -272 2 -137 9
-153 86 -208 41 -29 47 -30 149 -30 94 1 114 4 164 27 75 35 141 97 167 159
18 41 24 82 31 212 5 89 9 187 10 218 l0 56 157 219 c211 295 208 289 208 394
-1 75 -5 93 -33 152 -62 127 -208 255 -317 278 -48 10 -60 9 -98 -8 -36 -16
-54 -35 -99 -103 -30 -46 -70 -110 -88 -141 -17 -32 -35 -58 -38 -58 -4 0 -36
48 -72 106 -125 203 -174 238 -282 200z m108 -103 c24 -26 112 -165 204 -320
23 -40 44 -73 45 -73 2 0 34 55 71 123 89 162 162 275 186 288 42 22 140 -32
225 -125 82 -90 118 -194 93 -271 -6 -20 -90 -145 -185 -278 l-172 -242 -10
-225 c-12 -252 -18 -278 -79 -329 -51 -42 -161 -76 -220 -67 -59 8 -103 31
-114 62 -6 14 -10 125 -11 247 0 122 -4 242 -8 267 -6 36 -40 91 -176 280 -92
129 -174 249 -181 267 -20 46 -17 103 7 169 38 101 207 254 281 254 11 0 30
-12 44 -27z"/>
<path d="M2371 4164 c-115 -31 -185 -86 -226 -177 -21 -49 -155 -420 -323
-897 -91 -260 -100 -319 -58 -405 95 -192 474 -313 563 -179 10 16 32 69 48
118 l31 90 53 13 c30 8 59 12 65 10 6 -3 20 -36 29 -73 27 -104 66 -174 107
-196 98 -51 319 9 442 120 61 55 90 113 95 190 5 63 0 80 -65 267 -94 271
-319 890 -342 942 -30 68 -66 108 -128 141 -97 51 -191 63 -291 36z m234 -108
c87 -40 64 13 389 -895 65 -181 116 -340 116 -359 0 -50 -35 -116 -79 -152
-89 -69 -255 -123 -314 -101 -34 13 -53 56 -92 204 -15 59 -31 107 -34 107 -3
0 -49 -11 -101 -25 -52 -14 -111 -30 -131 -35 -34 -9 -37 -14 -49 -67 -20 -93
-50 -162 -76 -179 -18 -12 -36 -15 -71 -9 -182 26 -333 140 -333 249 0 51 352
1063 409 1174 55 109 230 151 366 88z"/>
<path d="M6195 4145 c-275 -42 -669 -132 -900 -206 -224 -71 -261 -102 -259
-219 1 -80 28 -153 93 -252 51 -79 129 -155 169 -165 13 -3 56 -3 96 0 l71 6
-21 -302 c-12 -166 -19 -318 -16 -337 23 -155 188 -260 407 -260 135 0 216 37
243 110 19 50 21 132 14 538 l-7 413 85 25 c231 69 240 74 282 151 64 116 61
336 -5 433 -50 74 -103 88 -252 65z m157 -94 c63 -50 73 -268 17 -360 -23 -38
-57 -54 -236 -107 -131 -39 -131 -39 -137 -73 -3 -18 -2 -232 1 -475 3 -243 3
-454 -1 -469 -10 -43 -57 -61 -156 -61 -126 -1 -201 25 -267 89 l-53 51 0 70
c0 68 22 419 39 614 4 52 7 96 6 98 -2 2 -51 -7 -110 -18 -89 -18 -112 -20
-136 -9 -88 36 -214 269 -193 355 8 33 64 59 246 113 268 81 738 181 939 200
9 0 27 -8 41 -18z"/>
</g>
</svg>
